<?xml version="1.0" encoding="utf-8"?>
<!-- Generator: Adobe Illustrator 19.2.0, SVG Export Plug-In . SVG Version: 6.00 Build 0)  -->
<svg version="1.1" id="Layer_1" xmlns="http://www.w3.org/2000/svg" xmlns:xlink="http://www.w3.org/1999/xlink" x="0px" y="0px"
	 width="16px" height="16px" viewBox="0 0 16 16" style="enable-background:new 0 0 16 16;" xml:space="preserve">
<style type="text/css">
	.st0{fill:#B4B4B4;}
</style>
<path class="st0" d="M15.7,13.7l-4.3-4.3c0.6-0.9,0.9-2.1,0.9-3.2C12.3,2.8,9.6,0,6.1,0C2.8,0,0,2.8,0,6.1s2.8,6.1,6.1,6.1
	c1.2,0,2.3-0.3,3.2-0.9l4.3,4.3c0.3,0.3,0.7,0.5,1,0.5s0.7-0.1,0.9-0.3s0.3-0.6,0.3-0.9C16.1,14.4,16,14,15.7,13.7z M9.6,6.1
	c0,1.8-1.5,3.5-3.5,3.5c-1.8,0-3.5-1.5-3.5-3.5c0-1.8,1.5-3.5,3.5-3.5C8.1,2.8,9.6,4.3,9.6,6.1z"/>
</svg>
